<?xml version="1.0" encoding="UTF-8" standalone="no"?>
<svg width="24px" height="24px" viewBox="0 0 24 24" version="1.1" xmlns="http://www.w3.org/2000/svg" xmlns:xlink="http://www.w3.org/1999/xlink" xmlns:sketch="http://www.bohemiancoding.com/sketch/ns">
    <!-- Generator: Sketch 3.3.3 (12081) - http://www.bohemiancoding.com/sketch -->
    <title>cloud upload</title>
    <desc>Created with Sketch.</desc>
    <defs></defs>
    <g id="Page-1" stroke="none" stroke-width="1" fill="none" fill-rule="evenodd" sketch:type="MSPage">
        <g id="cloud-upload" sketch:type="MSArtboardGroup" fill="#4A4A4A">
            <path d="M11,4 C7.42666667,4 4.45866667,6.40666667 3.43733333,9.656 C1.432,10.6253333 0,12.6253333 0,15 C0,18.3026667 2.69733333,21 6,21 L18,21 C21.3026667,21 24,18.3026667 24,15 C24,11.8173333 21.4786667,9.25066667 18.344,9.06266667 C17.1613333,6.12 14.3546667,4 11,4 L11,4 Z M11,6 C13.7346667,6 16.0213333,7.82266667 16.7493333,10.312 L16.9693333,11.0626667 L17.7813333,11.0306667 C17.9946667,11.016 18.0573333,11 18,11 C20.224,11 22,12.776 22,15 C22,17.2186667 20.224,19 18,19 L6,19 C3.776,19 2,17.2186667 2,15 C2,13.292 3.06266667,11.86 4.56266667,11.2813333 L5.06266667,11.0933333 L5.188,10.5933333 C5.82266667,7.96933333 8.16666667,6 11,6 L11,6 Z M12.7335746,16.7581118 L12.7350152,13.5081732 L14.7194074,13.5081732 L11.0745934,9.31725563 L7.52142286,13.5081732 L9.58416415,13.5081732 L9.58416415,16.7581118 L12.7335746,16.7581118 Z" id="Imported-Layers-Copy-4" sketch:type="MSShapeGroup"></path>
        </g>
    </g>
</svg>