<?xml version="1.0" encoding="UTF-8" standalone="no"?>
<svg width="24px" height="24px" viewBox="0 0 24 24" version="1.1" xmlns="http://www.w3.org/2000/svg" xmlns:xlink="http://www.w3.org/1999/xlink" xmlns:sketch="http://www.bohemiancoding.com/sketch/ns">
    <!-- Generator: Sketch 3.3.3 (12081) - http://www.bohemiancoding.com/sketch -->
    <title>cloud disconnected</title>
    <desc>Created with Sketch.</desc>
    <defs></defs>
    <g id="Page-1" stroke="none" stroke-width="1" fill="none" fill-rule="evenodd" sketch:type="MSPage">
        <g id="cloud-disconnected" sketch:type="MSArtboardGroup" fill="#4A4A4A">
            <g id="Group-Copy" sketch:type="MSLayerGroup" transform="translate(0.000000, 3.000000)">
                <path d="M11.0605667,0.0129168828 C7.70014457,0.0129168828 4.90898794,2.2761863 3.94850906,5.33191348 C2.0626602,6.24349069 0.715983551,8.124324 0.715983551,10.3575001 C0.715983551,13.4633828 3.25260074,16 6.35848347,16 L17.6434833,16 C20.7493661,16 23.2859832,13.4633828 23.2859832,10.3575001 C23.2859832,7.36446734 20.9148794,4.95073126 17.9669867,4.77393293 C16.8547872,2.00660019 14.2153511,0.0129168828 11.0605667,0.0129168828 L11.0605667,0.0129168828 Z M11.0605667,1.89375019 C13.6322928,1.89375019 15.7827122,3.60781628 16.4673356,5.9488268 L16.6742272,6.65476624 L17.4378455,6.6246729 C17.6384678,6.61088013 17.6974005,6.59583346 17.6434833,6.59583346 C19.73497,6.59583346 21.4051499,8.26601344 21.4051499,10.3575001 C21.4051499,12.4439712 19.73497,14.1191667 17.6434833,14.1191667 L6.35848347,14.1191667 C4.26699684,14.1191667 2.59681686,12.4439712 2.59681686,10.3575001 C2.59681686,8.75126843 3.59616629,7.40459178 5.00679127,6.86040401 L5.4769996,6.68360568 L5.59486515,6.21339735 C6.19171625,3.74574405 8.39605289,1.89375019 11.0605667,1.89375019 L11.0605667,1.89375019 Z" id="Imported-Layers-Copy-3" sketch:type="MSShapeGroup"></path>
                <g id="Rectangle-48-Copy-+-Rectangle-49" transform="translate(10.983347, 9.759122) rotate(-315.000000) translate(-10.983347, -9.759122) translate(6.483347, 5.259122)" sketch:type="MSShapeGroup">
                    <rect id="Rectangle-48-Copy" transform="translate(4.027961, 4.000000) rotate(-90.000000) translate(-4.027961, -4.000000) " x="0.0279605263" y="3" width="8" height="2"></rect>
                    <rect id="Rectangle-49" x="5.32907052e-15" y="2.97490259" width="8" height="2"></rect>
                </g>
            </g>
        </g>
    </g>
</svg>