<?xml version="1.0" encoding="UTF-8" standalone="no"?>
<svg width="24px" height="24px" viewBox="0 0 24 24" version="1.1" xmlns="http://www.w3.org/2000/svg" xmlns:xlink="http://www.w3.org/1999/xlink" xmlns:sketch="http://www.bohemiancoding.com/sketch/ns">
    <!-- Generator: Sketch 3.3.3 (12081) - http://www.bohemiancoding.com/sketch -->
    <title>connected</title>
    <desc>Created with Sketch.</desc>
    <defs></defs>
    <g id="Page-1" stroke="none" stroke-width="1" fill="none" fill-rule="evenodd" sketch:type="MSPage">
        <g id="connected" sketch:type="MSArtboardGroup" fill="#4A4A4A">
            <g id="online" sketch:type="MSLayerGroup" transform="translate(0.000000, 3.000000)">
                <path d="M11.7073171,11.232 C10.416,11.232 9.36585366,10.1897419 9.36585366,8.90941935 C9.36585366,7.62909677 10.416,6.58683871 11.7073171,6.58683871 C12.9986341,6.58683871 14.0487805,7.62909677 14.0487805,8.90941935 C14.0487805,10.1897419 12.9986341,11.232 11.7073171,11.232" id="Fill-1" sketch:type="MSShapeGroup"></path>
                <path d="M16.1789268,14.4551613 L14.4216585,12.9205161 L15.1949268,12.0489677 C15.9658537,11.1803226 16.3902439,10.0654839 16.3902439,8.90941935 C16.3902439,7.74522581 15.9646829,6.62748387 15.1925854,5.76290323 L14.4163902,4.89367742 L16.1689756,3.35380645 L16.9451707,4.22303226 C18.0971707,5.51264516 18.7317073,7.17735484 18.7317073,8.90941935 C18.7317073,10.6310323 18.0995122,12.2905161 16.9521951,13.5836129 L16.1789268,14.4551613" id="Fill-2" sketch:type="MSShapeGroup"></path>
                <path d="M7.29131707,14.4737419 L6.5075122,13.6114839 C5.33092683,12.3149032 4.68292683,10.6362581 4.68292683,8.88270968 C4.68292683,7.16516129 5.31160976,5.508 6.45307317,4.21780645 L7.22517073,3.34509677 L8.98478049,4.87683871 L8.21268293,5.75012903 C7.44643902,6.61645161 7.02439024,7.72896774 7.02439024,8.88270968 C7.02439024,10.0608387 7.45873171,11.1884516 8.24721951,12.0565161 L9.03043902,12.9193548 L7.29131707,14.4737419" id="Fill-3" sketch:type="MSShapeGroup"></path>
                <path d="M19.5319024,17.8234839 L17.7880976,16.2737419 L18.5689756,15.4085806 C20.1834146,13.6207742 21.0731707,11.3127097 21.0731707,8.90941935 C21.0731707,6.50496774 20.1880976,4.19922581 18.5818537,2.41432258 L17.8021463,1.54858065 L19.548878,0.00116129032 L20.3285854,0.867483871 C22.3188293,3.078 23.4146341,5.93419355 23.4146341,8.90941935 C23.4146341,11.8852258 22.313561,14.7437419 20.3133659,16.9583226 L19.5319024,17.8234839" id="Fill-4" sketch:type="MSShapeGroup"></path>
                <path d="M3.87863415,17.8194194 L3.0977561,16.9542581 C1.09990244,14.742 0,11.8817419 0,8.89896774 C0,5.93129032 1.09580488,3.07858065 3.08546341,0.866322581 L3.86517073,0 L5.61190244,1.54683871 L4.83219512,2.41316129 C3.22595122,4.19922581 2.34146341,6.50206452 2.34146341,8.89896774 C2.34146341,11.3080645 3.22946341,13.6190323 4.84156098,15.4045161 L5.62243902,16.2690968 L3.87863415,17.8194194" id="Fill-5" sketch:type="MSShapeGroup"></path>
            </g>
        </g>
    </g>
</svg>
