<?xml version="1.0" encoding="UTF-8" standalone="no"?>
<svg width="24px" height="24px" viewBox="0 0 24 24" version="1.1" xmlns="http://www.w3.org/2000/svg" xmlns:xlink="http://www.w3.org/1999/xlink" xmlns:sketch="http://www.bohemiancoding.com/sketch/ns">
    <!-- Generator: Sketch 3.3.3 (12081) - http://www.bohemiancoding.com/sketch -->
    <title>data</title>
    <desc>Created with Sketch.</desc>
    <defs></defs>
    <g id="Page-1" stroke="none" stroke-width="1" fill="none" fill-rule="evenodd" sketch:type="MSPage">
        <g id="data" sketch:type="MSArtboardGroup" fill="#4A4A4A">
            <path d="M9.37176471,0 L6.09505882,14.1289412 L5.16894118,11.3167059 L4.93741176,10.5882353 L1,10.5882353 L1,12.7058824 L3.41552941,12.7058824 L5.30164706,18.3303529 L6.49317647,21.9049412 L7.32047059,18.2315294 L9.56941176,8.47058824 L10.5618824,11.9449412 L10.7948235,12.7058824 L14.0037647,12.7058824 C14.368,13.3397647 15.04,13.7647059 15.8235294,13.7647059 C16.9924706,13.7647059 17.9411765,12.816 17.9411765,11.6470588 C17.9411765,10.4781176 16.9924706,9.52941176 15.8235294,9.52941176 C15.04,9.52941176 14.368,9.95435294 14.0037647,10.5882353 L12.3816471,10.5882353 L10.4969412,3.93741176 L9.37176471,0 L9.37176471,0 Z M15.8235294,5.29411765 L15.8235294,7.41176471 C18.2334118,7.41176471 20.0588235,9.23717647 20.0588235,11.6470588 C20.0588235,14.0569412 18.2334118,15.8823529 15.8235294,15.8823529 L15.8235294,18 C19.3416471,18 22.1764706,15.1651765 22.1764706,11.6470588 C22.1764706,8.12894118 19.3416471,5.29411765 15.8235294,5.29411765 L15.8235294,5.29411765 Z" id="Imported-Layers-Copy-2" sketch:type="MSShapeGroup"></path>
        </g>
    </g>
</svg>