<?xml version="1.0" encoding="UTF-8" standalone="no"?>
<svg width="24px" height="36px" viewBox="0 0 24 36" version="1.1" xmlns="http://www.w3.org/2000/svg" xmlns:xlink="http://www.w3.org/1999/xlink" xmlns:sketch="http://www.bohemiancoding.com/sketch/ns">
    <!-- Generator: Sketch 3.3.3 (12081) - http://www.bohemiancoding.com/sketch -->
    <title>humidity</title>
    <desc>Created with Sketch.</desc>
    <defs></defs>
    <g id="Page-1" stroke="none" stroke-width="1" fill="none" fill-rule="evenodd" sketch:type="MSPage">
        <g id="humidity" sketch:type="MSArtboardGroup">
            <path d="M24,24.1111111 C24,30.4897778 18.624,35.6666667 12,35.6666667 C5.376,35.6666667 -7.10542736e-15,30.4897778 -7.10542736e-15,24.1111111 C-7.10542736e-15,17.7324444 12,1 12,1 C12,1 24,17.7324444 24,24.1111111 L24,24.1111111 Z" fill="#9B9B9B" sketch:type="MSShapeGroup"></path>
            <path d="M17.0510843,30.0187952 C16.0406375,30.0187952 15.2541394,29.7061075 14.6915663,29.0807229 C14.1289932,28.4553382 13.8477108,27.552777 13.8477108,26.373012 C13.8477108,25.1768615 14.1208005,24.2633766 14.666988,23.6325301 C15.2131754,23.0016836 16.0078663,22.6862651 17.0510843,22.6862651 C18.1052262,22.6862651 18.9067442,23.003049 19.4556627,23.6366265 C20.0045811,24.270204 20.2790361,25.1823234 20.2790361,26.373012 C20.2790361,27.552777 19.9991193,28.4553382 19.4392771,29.0807229 C18.879435,29.7061075 18.0833787,30.0187952 17.0510843,30.0187952 L17.0510843,30.0187952 Z M8.11277108,30.1826506 L14.2327711,18 L16.1826506,18 L10.0380723,30.1826506 L8.11277108,30.1826506 Z M7.20337349,25.5209639 C6.19292667,25.5209639 5.40642852,25.2082762 4.84385542,24.5828916 C4.28128233,23.9575069 4,23.0549457 4,21.8751807 C4,20.6681064 4.27718598,19.7518907 4.83156627,19.126506 C5.38594655,18.5011214 6.17654105,18.1884337 7.20337349,18.1884337 C8.25205344,18.1884337 9.05084063,18.5052177 9.59975904,19.1387952 C10.1486774,19.7723726 10.4231325,20.684492 10.4231325,21.8751807 C10.4231325,23.0549457 10.147312,23.9575069 9.59566265,24.5828916 C9.04401331,25.2082762 8.24659156,25.5209639 7.20337349,25.5209639 L7.20337349,25.5209639 Z M17.0510843,28.5359036 C17.4934962,28.5359036 17.8061838,28.3624917 17.9891566,28.0156627 C18.1721294,27.6688336 18.2636145,27.1212889 18.2636145,26.373012 C18.2636145,25.8432102 18.2199201,25.4117286 18.1325301,25.0785542 C18.0451401,24.7453799 17.9222498,24.5091573 17.7638554,24.3698795 C17.6054611,24.2306017 17.3678731,24.1609639 17.0510843,24.1609639 C16.6250581,24.1609639 16.3205632,24.3371067 16.1375904,24.6893976 C15.9546176,25.0416885 15.8631325,25.6028877 15.8631325,26.373012 C15.8631325,27.203217 15.9641757,27.7712435 16.1662651,28.0771084 C16.3683544,28.3829734 16.6632912,28.5359036 17.0510843,28.5359036 L17.0510843,28.5359036 Z M7.20337349,24.0462651 C7.64032347,24.0462651 7.95164566,23.8728531 8.1373494,23.5260241 C8.32305314,23.1791951 8.41590361,22.6289194 8.41590361,21.8751807 C8.41590361,21.1323658 8.32851493,20.5779938 8.15373494,20.2120482 C7.97895495,19.8461026 7.66217097,19.6631325 7.20337349,19.6631325 C6.77734727,19.6631325 6.47285232,19.8392753 6.28987952,20.1915663 C6.10690672,20.5438572 6.01542169,21.1050564 6.01542169,21.8751807 C6.01542169,22.7053857 6.11646485,23.2747776 6.31855422,23.5833735 C6.52064358,23.8919694 6.81558039,24.0462651 7.20337349,24.0462651 L7.20337349,24.0462651 Z" id="%-copy" fill="#FFFFFF" sketch:type="MSShapeGroup"></path>
        </g>
    </g>
</svg>