<?xml version="1.0" encoding="UTF-8" standalone="no"?>
<svg width="19px" height="36px" viewBox="0 0 19 36" version="1.1" xmlns="http://www.w3.org/2000/svg" xmlns:xlink="http://www.w3.org/1999/xlink" xmlns:sketch="http://www.bohemiancoding.com/sketch/ns">
    <!-- Generator: Sketch 3.4.1 (15681) - http://www.bohemiancoding.com/sketch -->
    <title>indoor</title>
    <desc>Created with Sketch.</desc>
    <defs></defs>
    <g id="Page-1" stroke="none" stroke-width="1" fill="none" fill-rule="evenodd" sketch:type="MSPage">
        <g id="indoor" sketch:type="MSArtboardGroup" fill="#9B9B9B">
            <g id="Page-1" sketch:type="MSLayerGroup">
                <g id="Group-6" sketch:type="MSShapeGroup">
                    <path d="M9.5,32.25 C5.689,32.25 2.59,29.15 2.59,25.34 C2.59,22.807 3.963,20.594 6,19.391 L6,19 L6,17.147 L6,5 C6,3.346 7.57,2 9.5,2 C11.43,2 13,3.346 13,5 L13,17.147 L13,19 L13,19.391 C15.037,20.594 16.41,22.807 16.41,25.34 C16.41,29.15 13.311,32.25 9.5,32.25 M15,18.353 L15,5 C15,2.243 12.532,0 9.5,0 C6.468,0 4,2.243 4,5 L4,18.353 C1.93,19.986 0.59,22.504 0.59,25.34 C0.59,30.253 4.587,34.25 9.5,34.25 C14.413,34.25 18.41,30.253 18.41,25.34 C18.41,22.504 17.07,19.985 15,18.353" id="Fill-2"></path>
                    <path d="M11,21.4112 L11,9.0002 L8,9.0002 L8,21.4112 C6.415,22.0172 5.284,23.5412 5.284,25.3392 C5.284,27.6682 7.172,29.5552 9.5,29.5552 C11.828,29.5552 13.716,27.6682 13.716,25.3392 C13.716,23.5412 12.585,22.0172 11,21.4112" id="Fill-4"></path>
                </g>
            </g>
        </g>
    </g>
</svg>