<?xml version="1.0" encoding="iso-8859-1"?>
<!-- Generator: Adobe Illustrator 21.0.0, SVG Export Plug-In . SVG Version: 6.00 Build 0)  -->
<svg xmlns="http://www.w3.org/2000/svg" xmlns:xlink="http://www.w3.org/1999/xlink" version="1.1" id="Capa_1" x="0px" y="0px" viewBox="0 0 512 512" style="enable-background:new 0 0 512 512;" xml:space="preserve" width="512" height="512">
<g>
	<path d="M487.303,275.614c17.544-17.545,17.544-46.094-0.001-63.639c-4.138-4.138-8.888-7.3-13.961-9.486   c9.814-17.182,7.397-39.503-7.253-54.153c-4.201-4.202-9.088-7.47-14.407-9.701c8.741-16.695,6.36-38.2-8.093-52.651   c-14.903-14.904-37.26-16.95-54.139-7.278c-2.225-5.137-5.423-9.858-9.501-13.936c-17.586-17.587-46.051-17.589-63.639,0   L202.207,178.871v-31.072c0-24.812-20.186-44.997-44.997-44.997c-24.476,0-44.449,19.643-44.986,43.992L91.111,319.329   c-0.561,4.581,1.019,9.165,4.282,12.428l114.85,114.85c2.83,2.831,6.653,4.394,10.605,4.394c0.632,0,1.267-0.04,1.901-0.121   c66.01-8.432,128.276-38.99,175.331-86.044L487.303,275.614z M226.162,420.1L121.777,315.714l20.324-166.094   c0.074-0.604,0.111-1.213,0.111-1.822c0-8.27,6.728-14.997,14.997-14.997s14.997,6.728,14.997,14.997v67.286   c0,6.067,3.654,11.537,9.26,13.858c5.604,2.322,12.058,1.039,16.347-3.252L337.522,85.982c5.862-5.862,15.35-5.862,21.213,0   c5.863,5.864,5.863,15.35,0,21.213l-86.673,86.673c-5.858,5.857-5.858,15.355,0,21.213c5.857,5.858,15.355,5.858,21.213,0   l107.888-107.886c5.861-5.862,15.349-5.862,21.212,0c5.849,5.849,5.849,15.365,0,21.213   c-3.66,3.66-102.924,102.924-107.886,107.886c-5.858,5.857-5.858,15.355,0,21.213c5.856,5.858,15.354,5.858,21.213,0l87.961-87.96   c5.86-5.861,15.349-5.862,21.212,0c5.849,5.849,5.849,15.365,0,21.214c-3.371,3.371-77.117,77.117-87.959,87.959   c-5.858,5.857-5.858,15.355,0,21.213c0.366,0.366,0.746,0.709,1.139,1.03c5.891,4.806,14.583,4.462,20.074-1.03l66.75-66.75   c5.85-5.844,15.363-5.843,21.209,0.003c5.849,5.849,5.849,15.366,0.001,21.214l-89.221,89.22   C336.204,384.286,282.928,411.271,226.162,420.1z"/>
	<path d="M497,362c-8.284,0-15,6.716-15,15c0,57.897-47.103,105-105,105c-8.284,0-15,6.716-15,15s6.716,15,15,15   c74.439,0,135-60.561,135-135C512,368.716,505.284,362,497,362z"/>
	<path d="M422,377c0,24.813-20.187,45-45,45c-8.284,0-15,6.716-15,15s6.716,15,15,15c41.355,0,75-33.645,75-75   c0-8.284-6.716-15-15-15S422,368.716,422,377z"/>
	<path d="M135,30c8.284,0,15-6.716,15-15s-6.716-15-15-15C60.561,0,0,60.561,0,135c0,8.284,6.716,15,15,15s15-6.716,15-15   C30,77.103,77.103,30,135,30z"/>
	<path d="M135,90c8.284,0,15-6.716,15-15s-6.716-15-15-15c-41.355,0-75,33.645-75,75c0,8.284,6.716,15,15,15s15-6.716,15-15   C90,110.187,110.187,90,135,90z"/>
</g>















</svg>
