<?xml version="1.0" encoding="UTF-8" standalone="no"?>
<svg width="20px" height="20px" viewBox="0 0 20 20" version="1.1" xmlns="http://www.w3.org/2000/svg" xmlns:xlink="http://www.w3.org/1999/xlink" xmlns:sketch="http://www.bohemiancoding.com/sketch/ns">
    <!-- Generator: Sketch 3.4 (15588) - http://www.bohemiancoding.com/sketch -->
    <title>Page 1</title>
    <desc>Created with Sketch.</desc>
    <defs>
        <path id="path-1" d="M0,0 L19.448,0 L19.448,20 L0,20 L0,0 Z"></path>
    </defs>
    <g id="Page-1" stroke="none" stroke-width="1" fill="none" fill-rule="evenodd" sketch:type="MSPage">
        <g id="settings" sketch:type="MSArtboardGroup">
            <g id="Page-1" sketch:type="MSLayerGroup">
                <mask id="mask-2" sketch:name="Clip 2" fill="white">
                    <use xlink:href="#path-1"></use>
                </mask>
                <g id="Clip-2"></g>
                <path d="M10.0156283,14 C7.75323198,14 5.90218041,12.2 5.90218041,10 C5.90218041,7.8 7.75323198,6 10.0156283,6 C12.2780247,6 14.1290763,7.8 14.1290763,10 C14.1290763,12.2 12.2780247,14 10.0156283,14 L10.0156283,14 Z M17.625507,11 C17.625507,10.7 17.7283432,10.3 17.7283432,10 C17.7283432,9.7 17.7283432,9.3 17.625507,9 L19.7850672,7.5 C19.9907396,7.4 20.0935758,7.1 19.8879034,6.8 L17.8311794,3.3 C17.7283432,3 17.4198346,2.9 17.2141622,3 L14.7460935,4.1 C14.2319125,3.7 13.5120591,3.3 12.8950419,3.1 L12.5865333,0.5 C12.5865333,0.2 12.3808609,0 12.0723523,0 L7.95890438,0 C7.65039578,0 7.44472339,0.2 7.44472339,0.5 L7.13621479,3 C6.4163614,3.3 5.79934422,3.6 5.28516322,4 L2.81709447,3 C2.61142207,2.9 2.30291347,3 2.20007728,3.2 L0.143353311,6.7 C-0.0623190852,7 -0.0623190852,7.3 0.24618951,7.4 L2.40574967,9 C2.40574967,9.3 2.30291347,9.7 2.30291347,10 C2.30291347,10.3 2.30291347,10.7 2.40574967,11 L0.24618951,12.5 C0.040517113,12.6 -0.0623190852,12.9 0.143353311,13.2 L2.20007728,16.7 C2.30291347,17 2.61142207,17.1 2.81709447,17 L5.28516322,15.9 C5.79934422,16.3 6.5191976,16.7 7.13621479,16.9 L7.44472339,19.5 C7.44472339,19.8 7.65039578,20 7.95890438,20 L12.0723523,20 C12.3808609,20 12.5865333,19.8 12.5865333,19.5 L12.8950419,16.9 C13.6148953,16.6 14.2319125,16.3 14.7460935,15.9 L17.2141622,17 C17.4198346,17.1 17.7283432,17 17.8311794,16.8 L19.8879034,13.3 C19.9907396,13.1 19.9907396,12.8 19.7850672,12.6 L17.625507,11 Z" id="Fill-1" fill="#4A4A4A" sketch:type="MSShapeGroup" mask="url(#mask-2)"></path>
            </g>
        </g>
    </g>
</svg>